<?xml version="1.0" standalone="no"?>
<!DOCTYPE svg PUBLIC "-//W3C//DTD SVG 20010904//EN"
 "http://www.w3.org/TR/2001/REC-SVG-20010904/DTD/svg10.dtd">
<svg version="1.0" xmlns="http://www.w3.org/2000/svg"
 width="800.000000pt" height="800.000000pt" viewBox="0 0 800.000000 800.000000"
 preserveAspectRatio="xMidYMid meet">

<g transform="translate(0.000000,800.000000) scale(0.100000,-0.100000)"
fill="#000000" stroke="none">
<path d="M3145 7448 c-16 -5 -57 -22 -90 -38 -33 -16 -94 -44 -135 -63 -41
-19 -88 -46 -105 -61 -16 -15 -49 -41 -72 -57 -24 -17 -43 -34 -43 -38 0 -5
-18 -21 -41 -37 -46 -31 -119 -127 -119 -156 0 -23 -86 -105 -162 -156 -31
-20 -61 -46 -68 -57 -6 -11 -39 -38 -73 -60 -86 -55 -186 -159 -237 -244 -56
-94 -69 -133 -70 -211 0 -36 -6 -90 -13 -120 -8 -33 -10 -71 -5 -95 14 -81 10
-97 -35 -147 -43 -46 -44 -48 -51 -135 -3 -48 -9 -119 -12 -156 -8 -76 8 -140
38 -161 18 -13 18 -15 -3 -50 -16 -27 -19 -40 -11 -48 9 -9 16 -7 29 4 32 27
53 29 80 8 31 -24 43 -25 43 -5 0 8 6 15 14 15 14 0 19 -24 32 -147 3 -29 10
-53 15 -53 5 0 9 7 9 16 0 9 6 14 13 11 8 -2 12 -27 12 -73 1 -82 23 -165 46
-171 15 -4 34 -53 30 -75 0 -4 10 -15 24 -24 14 -9 25 -26 25 -39 0 -12 7 -28
15 -35 14 -12 14 -15 0 -30 -11 -12 -13 -20 -6 -25 6 -3 11 -15 11 -26 0 -12
18 -32 45 -51 24 -17 49 -44 54 -59 7 -21 14 -26 30 -22 12 3 21 1 21 -6 0 -6
7 -11 15 -11 17 0 75 -86 75 -112 0 -34 80 -230 108 -266 16 -20 35 -54 42
-75 20 -64 22 -35 5 90 -25 177 -23 443 3 443 4 0 22 -22 40 -49 39 -57 65
-71 132 -71 38 0 61 -7 97 -30 26 -16 55 -30 64 -30 10 0 21 -5 24 -11 4 -6
13 -8 21 -5 7 3 31 -1 53 -9 40 -14 103 -11 156 7 57 20 85 33 85 39 0 4 8 6
18 5 12 -1 16 5 14 19 -2 16 -1 17 7 5 8 -11 15 -12 28 -4 38 24 76 119 150
373 19 65 64 121 84 105 18 -14 69 -28 92 -25 9 1 17 -2 17 -6 0 -13 77 -113
103 -133 12 -10 43 -23 67 -30 24 -7 78 -26 120 -42 60 -25 97 -32 185 -38
101 -7 113 -5 150 14 47 25 57 36 44 52 -9 11 -3 14 84 55 21 10 27 19 24 35
-2 13 3 26 15 33 10 6 18 18 18 26 0 17 -16 20 -25 5 -9 -14 -45 7 -45 25 0
10 10 15 27 15 14 0 34 6 42 13 9 8 43 20 76 27 71 15 115 35 115 53 0 19 -49
61 -87 76 -18 7 -38 19 -44 27 -6 8 -20 14 -30 14 -11 0 -19 4 -19 10 0 5 -17
12 -37 16 l-37 7 33 25 c33 26 75 34 179 35 54 0 68 10 30 22 -23 6 -22 7 5
17 15 5 27 16 27 24 0 20 5 18 66 -22 113 -75 208 -203 254 -343 38 -118 49
-207 56 -451 4 -128 11 -221 19 -247 7 -23 11 -51 8 -62 -3 -12 2 -27 11 -36
10 -11 16 -34 16 -66 0 -47 -2 -50 -21 -44 -25 8 -39 -8 -32 -36 7 -25 23 -24
23 1 0 11 5 20 10 20 10 0 15 -16 10 -35 -1 -5 -3 -16 -3 -22 0 -10 -4 -10
-14 -1 -18 15 -32 0 -36 -39 -2 -17 -10 -42 -18 -55 -9 -12 -23 -45 -33 -73
-11 -27 -26 -58 -35 -69 -10 -11 -15 -34 -14 -61 1 -34 -2 -44 -17 -48 -11 -3
-21 1 -24 10 -4 8 -13 13 -21 9 -8 -3 -19 2 -24 12 -8 14 -15 15 -51 6 l-41
-11 6 28 c6 25 4 29 -16 29 -42 0 -87 23 -94 47 -3 14 -13 23 -24 23 -10 0
-21 9 -24 20 -3 12 -14 20 -27 20 -13 0 -18 4 -14 11 3 6 17 8 30 5 17 -5 26
-2 31 10 4 12 14 14 39 9 27 -5 34 -3 34 10 0 8 3 15 8 15 12 0 66 50 60 56
-3 3 -13 -2 -22 -11 -15 -15 -16 -15 -16 4 0 12 9 30 20 41 22 22 40 26 40 10
0 -5 5 -10 10 -10 16 0 12 27 -5 34 -8 3 -12 12 -9 21 3 8 1 15 -4 15 -6 0
-28 11 -48 25 -20 14 -46 25 -56 25 -14 0 -18 5 -14 16 3 8 2 12 -4 9 -6 -3
-10 -1 -10 4 0 6 -4 11 -10 11 -5 0 -7 -7 -4 -15 9 -23 -33 -19 -48 5 -7 11
-18 20 -24 20 -15 0 -25 50 -10 51 6 0 -5 6 -24 12 -23 8 -37 9 -42 3 -4 -6
-14 -3 -27 8 -10 10 -30 16 -43 15 -13 -2 -37 5 -55 14 -19 10 -34 13 -38 7
-3 -5 -19 -7 -36 -3 -23 4 -35 1 -50 -16 -22 -23 -19 -51 5 -51 7 0 17 -11 20
-25 4 -14 23 -41 42 -60 23 -22 37 -47 39 -67 3 -18 6 -42 7 -53 2 -11 -2 -19
-9 -18 -7 2 -36 6 -66 9 -49 6 -55 5 -60 -15 -3 -12 -11 -19 -19 -16 -24 9
-41 -10 -29 -32 7 -15 7 -25 -2 -36 -11 -15 -18 -15 -82 -2 -93 20 -158 18
-225 -5 -63 -22 -74 -24 -65 -10 3 5 14 10 24 10 10 0 26 11 35 24 10 16 30
28 58 33 47 9 43 2 84 148 9 33 25 77 35 97 10 20 16 43 13 51 -8 23 -164 56
-289 62 -85 5 -124 2 -170 -10 -33 -10 -71 -19 -85 -22 -14 -3 -41 -22 -61
-42 -95 -95 -141 -114 -147 -58 -4 33 -25 31 -30 -2 -2 -12 -9 -24 -16 -27 -8
-3 -11 -15 -8 -31 4 -24 3 -25 -21 -19 -22 5 -26 2 -32 -25 -4 -19 -15 -33
-26 -36 -10 -3 -19 -10 -19 -15 0 -6 -9 -8 -20 -5 -11 3 -18 1 -15 -4 3 -4
-12 -17 -34 -28 -22 -12 -42 -25 -46 -31 -3 -5 -19 -10 -35 -10 -20 0 -35 -8
-45 -23 -14 -23 -81 -54 -92 -43 -3 3 -17 -1 -32 -8 -32 -16 -51 -11 -51 15 0
24 -9 24 -26 2 -8 -10 -14 -13 -14 -6 0 7 -11 23 -25 37 -19 20 -26 22 -35 11
-9 -10 -5 -25 14 -62 14 -26 26 -52 26 -57 0 -5 17 -28 38 -51 20 -24 69 -93
107 -155 39 -61 84 -130 101 -153 16 -23 43 -64 58 -90 15 -27 54 -79 85 -115
32 -37 61 -79 64 -94 6 -24 3 -28 -36 -47 -24 -12 -51 -21 -61 -21 -20 0 -83
-33 -146 -76 -65 -45 -121 -72 -175 -84 -116 -26 -222 -180 -256 -370 -33
-192 2 -441 82 -571 16 -25 29 -50 29 -55 0 -5 36 -44 80 -88 45 -44 80 -87
80 -98 0 -10 6 -31 14 -46 7 -15 20 -63 29 -107 9 -44 26 -105 38 -135 11 -30
25 -71 29 -90 14 -58 21 -83 40 -135 10 -27 24 -70 30 -95 6 -25 22 -79 35
-120 13 -41 40 -131 60 -200 21 -69 43 -141 50 -160 7 -19 43 -129 80 -245 37
-116 73 -226 80 -245 7 -19 21 -61 31 -92 l18 -58 328 0 c180 0 328 1 328 3 0
8 -52 155 -65 182 -7 17 -22 57 -34 90 -11 33 -36 103 -54 155 -19 52 -65 178
-102 280 -37 102 -71 199 -75 215 -5 17 -20 62 -35 100 -14 39 -32 90 -40 115
-22 73 -61 178 -106 285 -80 192 -129 349 -129 422 0 36 5 45 37 71 l38 30
-35 19 c-19 10 -47 30 -62 45 -26 25 -28 32 -30 115 0 48 0 98 1 111 2 26 -30
42 -85 42 -44 0 -41 -21 4 -32 33 -9 53 -28 29 -28 -23 0 -82 27 -97 44 -13
17 -16 3 97 401 58 204 97 317 110 322 16 6 45 -16 38 -27 -3 -5 -1 -11 5 -15
6 -4 8 -10 5 -15 -6 -10 22 -76 43 -102 14 -17 22 -67 23 -140 1 -33 4 -38 24
-38 21 0 25 -7 35 -57 7 -32 16 -73 20 -91 5 -18 4 -48 -2 -70 -7 -26 -7 -51
0 -82 6 -25 14 -63 17 -84 4 -21 13 -49 21 -62 9 -12 14 -28 13 -36 -3 -16 12
-110 19 -122 3 -5 7 -35 9 -65 3 -31 9 -60 14 -66 6 -5 9 -5 9 3 0 14 36 16
45 2 3 -5 16 -10 27 -10 20 0 20 1 5 18 -10 10 -17 23 -17 29 0 6 -7 14 -16
17 -8 3 -12 11 -9 16 4 6 19 -3 36 -21 32 -34 55 -34 51 2 -2 23 -2 23 29 -6
17 -17 69 -78 116 -137 47 -60 89 -108 93 -108 5 0 14 -17 21 -37 6 -21 22
-60 35 -88 13 -27 45 -102 72 -165 84 -196 102 -224 102 -155 0 19 -4 35 -10
35 -9 0 -20 34 -35 105 -5 21 -4 26 3 16 8 -11 10 -11 14 0 4 12 8 12 20 1 10
-8 26 -10 42 -6 16 4 26 2 26 -5 0 -19 26 -12 97 24 37 19 79 35 92 35 43 0
212 91 233 125 22 36 23 45 3 45 -11 0 -13 13 -10 70 2 38 6 74 10 80 3 6 23
18 43 28 20 10 46 23 57 29 46 25 76 36 97 37 13 1 35 6 51 10 40 12 70 1 122
-44 25 -22 50 -40 56 -40 5 0 9 25 9 55 0 30 6 74 14 97 8 24 24 77 34 118 37
138 69 234 127 375 106 257 123 302 163 437 51 172 69 268 81 451 7 111 6 159
-3 190 -12 41 -14 43 -171 124 -88 45 -182 87 -208 94 -26 7 -53 19 -59 26
-17 21 -13 101 6 121 9 10 16 23 16 29 0 17 51 56 103 78 25 11 48 27 50 36 3
9 -4 49 -13 88 -17 66 -17 77 -3 132 8 33 13 62 10 65 -2 3 -18 -3 -35 -13
-31 -18 -31 -18 -59 9 -37 36 -60 108 -73 235 -6 56 -15 116 -20 135 -13 43
-13 88 0 88 5 0 12 -17 16 -38 4 -28 15 -44 38 -60 18 -12 38 -22 44 -22 7 0
12 -4 12 -9 0 -5 7 -17 16 -26 15 -14 18 -13 40 12 29 34 29 39 5 83 -10 19
-22 50 -25 67 -4 18 -12 35 -17 38 -5 4 -9 21 -9 40 0 24 -7 39 -26 54 -26 21
-25 41 3 41 10 0 13 6 9 17 -4 9 -10 36 -13 60 -8 57 12 57 30 1 18 -61 46
-107 88 -149 20 -20 40 -46 44 -58 5 -17 10 -20 20 -11 37 31 26 202 -21 311
-25 60 -26 89 -3 89 6 0 22 11 34 25 23 23 23 26 8 72 -9 26 -17 84 -18 128
-1 65 -8 95 -35 160 -31 77 -37 116 -30 215 1 14 1 57 0 96 -1 53 3 79 15 97
15 23 15 31 1 89 -9 35 -20 95 -26 133 -16 109 -27 146 -51 169 -12 12 -19 16
-15 9 12 -22 -11 -22 -31 0 -29 33 -49 68 -63 112 -7 22 -26 57 -42 79 -24 29
-28 40 -18 46 17 10 2 33 -68 108 -45 48 -53 52 -93 52 -29 0 -66 11 -107 31
-35 17 -85 37 -111 45 -27 8 -54 21 -61 28 -12 16 -145 86 -161 86 -6 0 -29 9
-52 20 -37 18 -48 19 -97 9 -30 -6 -60 -15 -65 -19 -6 -5 -33 -18 -62 -29 -42
-16 -58 -18 -82 -10 -17 6 -31 17 -31 25 0 8 -7 14 -15 14 -9 0 -27 11 -42 24
-31 29 -23 50 33 77 l39 19 -60 -3 c-33 -2 -73 -11 -90 -20 -80 -43 -76 -42
-90 -24 -7 9 -18 17 -26 17 -8 0 -25 9 -39 20 -14 11 -33 20 -42 20 -21 0
-138 117 -138 137 0 7 -12 19 -27 25 -16 6 -41 24 -58 38 -34 30 -100 50 -160
48 -23 0 -74 12 -123 31 -89 33 -101 35 -147 19z m892 -1198 c10 -11 27 -20
39 -20 11 0 40 -13 62 -30 23 -16 44 -30 47 -30 19 0 91 -73 140 -141 62 -86
145 -239 145 -267 0 -10 4 -22 8 -27 5 -6 15 -30 22 -55 8 -25 32 -65 53 -90
22 -25 50 -67 63 -93 26 -50 57 -87 74 -87 5 0 14 -8 19 -19 9 -17 1 -16 -77
11 -48 17 -114 34 -147 39 -33 4 -90 13 -127 19 -56 9 -72 8 -97 -5 -17 -8
-45 -15 -63 -15 -19 0 -49 -11 -70 -25 -20 -14 -46 -25 -56 -25 -11 0 -25 -7
-33 -16 -7 -9 -22 -14 -36 -11 -39 7 -170 -31 -243 -72 -54 -30 -78 -40 -83
-34 -4 3 -13 0 -22 -7 -9 -8 -27 -10 -49 -6 -25 5 -35 3 -40 -9 -6 -16 -36
-21 -36 -6 0 5 -10 0 -23 -11 -20 -18 -36 -20 -125 -20 -56 0 -104 -4 -108 -9
-3 -5 -20 -9 -37 -9 -18 0 -50 -5 -72 -12 -22 -6 -44 -11 -48 -10 -4 1 -17 -3
-29 -9 -12 -6 -58 -11 -103 -10 -45 1 -95 -4 -111 -10 -16 -6 -40 -13 -54 -15
-48 -6 -113 -25 -134 -39 -11 -8 -24 -15 -28 -15 -18 0 -6 39 23 71 33 36 70
110 70 137 0 10 -2 35 -4 56 -5 41 18 126 33 126 5 0 21 -12 35 -26 21 -21 32
-25 58 -20 17 3 34 11 38 17 3 6 9 10 13 10 3 -1 21 -1 39 -1 24 0 28 3 17 10
-22 14 0 44 34 48 16 2 26 9 26 20 0 21 39 62 61 62 9 0 22 7 29 15 7 9 8 15
2 15 -5 0 -10 6 -9 13 1 36 -4 57 -13 52 -5 -3 -16 -3 -22 2 -13 7 -18 9 -50
11 -25 3 -23 39 2 52 11 6 18 15 15 21 -4 5 -1 9 4 9 6 0 11 -4 11 -10 0 -5 5
-10 10 -10 6 0 10 8 8 17 -2 12 10 24 39 38 34 16 43 25 43 47 0 14 3 33 6 41
4 12 0 14 -17 10 -21 -6 -22 -4 -15 28 3 19 14 40 24 47 51 38 82 68 82 81 0
9 7 11 23 6 53 -17 82 -16 117 6 58 37 100 57 100 48 0 -5 5 -9 10 -9 6 0 10
7 10 15 0 9 12 20 28 25 15 6 35 15 44 20 10 6 28 10 41 10 13 0 28 5 33 10
11 11 114 40 141 40 9 0 24 7 33 15 8 8 43 17 75 21 33 3 62 8 64 10 12 11 53
2 68 -16z m-987 -189 c9 -18 12 -18 40 -5 39 20 64 15 68 -14 3 -17 -2 -25
-17 -29 -12 -3 -21 -9 -21 -13 0 -4 -10 -20 -22 -36 -28 -35 -48 -91 -41 -113
3 -10 2 -12 -4 -5 -4 7 -19 14 -33 15 -23 4 -25 8 -22 47 2 23 0 42 -4 42 -10
0 -52 -48 -108 -124 -30 -40 -56 -66 -67 -66 -13 0 -19 -7 -19 -24 0 -26 -16
-43 -28 -31 -4 4 -2 10 5 12 7 2 10 10 7 18 -7 17 33 96 56 112 10 7 25 29 34
50 43 97 84 157 118 169 45 17 46 17 58 -5z m-1019 -216 c22 -14 43 -32 46
-41 11 -30 -25 -133 -100 -284 -14 -30 -31 -48 -50 -55 -34 -11 -46 3 -48 55
-1 29 -2 31 -7 12 -4 -13 -11 -24 -17 -25 -13 -3 -19 102 -7 128 6 11 16 36
23 55 18 51 26 56 51 33 23 -21 68 -47 68 -40 0 3 -16 22 -35 43 -36 39 -45
77 -21 91 7 4 18 18 25 31 15 28 22 28 72 -3z m949 -150 c0 -8 -6 -15 -14 -15
-7 0 -19 -7 -26 -15 -19 -23 -40 -19 -36 8 3 20 18 28 69 36 4 0 7 -6 7 -14z
m-286 -470 c6 -17 -2 -45 -14 -45 -5 0 -11 9 -15 20 -11 33 16 57 29 25z m666
-1137 c0 -9 4 -8 10 2 9 13 12 13 20 -2 6 -9 23 -19 39 -23 16 -3 33 -12 38
-18 12 -17 31 -76 37 -118 5 -34 2 -40 -37 -72 l-43 -35 -22 25 c-12 14 -22
38 -22 54 0 16 -5 29 -11 29 -6 0 -8 11 -4 29 4 21 2 30 -9 34 -22 9 -21 47 2
47 16 1 16 1 0 14 -19 14 -24 46 -8 46 6 0 10 -6 10 -12z m1385 -8 c-3 -5 -14
-10 -23 -10 -15 0 -15 2 -2 10 20 13 33 13 25 0z m-1028 -236 c-3 -3 -12 -4
-19 -1 -8 3 -5 6 6 6 11 1 17 -2 13 -5z m-118 -47 c-39 -27 -45 -27 -29 2 6
13 21 21 37 21 26 0 26 0 -8 -23z m1556 -90 c4 -23 18 -98 31 -167 13 -69 26
-148 29 -175 7 -62 10 -76 17 -95 28 -70 41 -149 42 -252 1 -63 -2 -88 -11
-88 -19 0 -27 -21 -12 -31 11 -7 10 -9 -4 -9 -22 0 -42 -18 -51 -48 -4 -13
-16 -22 -27 -22 -19 0 -19 1 1 40 30 58 23 95 -10 55 -7 -8 -19 -15 -27 -15
-13 0 -13 3 1 25 23 34 20 54 -9 65 -30 11 -30 13 -8 36 16 16 16 16 -6 9 -22
-7 -23 -6 -18 58 4 47 1 71 -9 86 -8 11 -16 34 -17 51 -2 30 -27 53 -27 25 0
-8 -7 -15 -15 -15 -19 0 -19 14 0 34 22 21 26 86 8 105 -14 13 -13 16 2 27 13
10 14 17 6 32 -13 24 -4 55 14 48 16 -6 25 36 13 59 -7 11 -4 29 10 58 11 23
27 68 36 100 19 65 31 67 41 4z m-799 21 c24 -12 44 -27 44 -35 0 -17 27 -17
33 0 3 8 10 7 26 -7 12 -11 21 -14 21 -7 0 8 5 8 20 -1 11 -7 19 -20 18 -29
-2 -9 2 -22 8 -30 7 -8 14 -23 16 -34 2 -11 10 -19 16 -17 7 1 12 -4 12 -12 0
-8 6 -16 13 -19 9 -3 9 -11 -1 -39 -15 -44 -7 -72 17 -58 14 7 17 5 17 -13 -1
-13 4 -21 12 -19 6 1 12 -2 12 -8 0 -5 -5 -10 -11 -10 -6 0 -7 -5 -2 -12 4 -7
9 -22 10 -33 2 -11 10 -25 19 -32 14 -10 13 -13 -3 -32 -9 -12 -28 -21 -40
-21 -13 0 -36 -15 -54 -35 -18 -19 -35 -32 -40 -30 -4 3 -12 -2 -17 -12 -13
-22 -80 -41 -134 -38 -24 1 -56 -4 -73 -10 -45 -18 -111 -18 -145 0 -24 12
-35 13 -51 4 -12 -6 -34 -9 -51 -7 -16 3 -31 1 -34 -4 -3 -4 -30 -5 -60 -2
-37 5 -54 3 -54 -5 0 -6 -12 -11 -26 -11 -14 0 -35 -5 -47 -12 -87 -48 -134
-43 -185 23 -20 26 -43 48 -49 49 -16 0 -16 8 0 24 7 7 18 11 25 8 7 -2 12 5
12 18 0 11 6 20 13 19 6 -1 25 3 40 9 16 7 35 12 43 12 8 0 14 4 14 8 0 23 74
42 163 42 74 0 98 4 124 20 34 20 90 30 223 39 18 1 80 55 80 70 0 20 36 31
56 16 20 -14 74 -9 74 6 0 5 -14 9 -31 9 -28 0 -31 3 -25 23 5 23 4 24 -42 16
-58 -9 -84 8 -76 50 4 18 0 32 -10 40 -9 8 -16 19 -16 26 0 19 -54 29 -150 30
-68 0 -85 3 -85 15 -1 20 14 30 45 30 14 0 36 7 49 16 14 10 52 18 100 21 42
3 78 7 80 9 7 7 12 5 57 -18z m-336 -18 c0 -5 -4 -10 -10 -10 -5 0 -10 5 -10
10 0 6 5 10 10 10 6 0 10 -4 10 -10z m1351 -497 c13 -16 12 -17 -3 -4 -10 7
-18 15 -18 17 0 8 8 3 21 -13z m53 -96 c9 -43 7 -67 -4 -67 -5 0 -10 13 -10
28 0 15 -4 32 -9 38 -4 5 -11 25 -15 44 l-6 35 19 -25 c11 -13 22 -37 25 -53z
m-4 -107 c0 -11 -4 -20 -10 -20 -5 0 -10 9 -10 20 0 11 5 20 10 20 6 0 10 -9
10 -20z m0 -40 c0 -5 -4 -10 -10 -10 -5 0 -10 5 -10 10 0 6 5 10 10 10 6 0 10
-4 10 -10z m-3 -82 c-3 -8 -6 -5 -6 6 -1 11 2 17 5 13 3 -3 4 -12 1 -19z m-17
-113 c0 -8 -2 -15 -4 -15 -2 0 -6 7 -10 15 -3 8 -1 15 4 15 6 0 10 -7 10 -15z
m-1320 -1057 c0 -41 -20 -27 -47 34 -2 3 8 1 22 -5 14 -7 25 -20 25 -29z m479
-140 c-9 -16 -29 -25 -29 -14 0 2 -2 10 -5 18 -3 9 3 13 19 13 20 0 22 -3 15
-17z"/>
<path d="M3050 5690 c0 -5 5 -10 10 -10 6 0 10 5 10 10 0 6 -4 10 -10 10 -5 0
-10 -4 -10 -10z"/>
<path d="M3100 5690 c0 -5 5 -10 10 -10 6 0 10 5 10 10 0 6 -4 10 -10 10 -5 0
-10 -4 -10 -10z"/>
<path d="M5111 3064 c0 -11 3 -14 6 -6 3 7 2 16 -1 19 -3 4 -6 -2 -5 -13z"/>
<path d="M4517 3493 c-14 -13 -6 -33 13 -33 22 0 23 1 14 24 -7 17 -16 20 -27
9z"/>
<path d="M5160 6621 c53 -68 69 -86 70 -74 0 16 -62 95 -80 101 -8 3 -5 -7 10
-27z"/>
<path d="M1872 5309 c2 -7 10 -15 17 -17 8 -3 12 1 9 9 -2 7 -10 15 -17 17 -8
3 -12 -1 -9 -9z"/>
<path d="M4056 4005 c-11 -29 -6 -55 9 -55 9 0 15 9 15 25 0 14 0 28 1 32 1
15 -19 13 -25 -2z"/>
<path d="M4780 3856 c-9 -12 -8 -15 8 -13 12 0 18 6 15 14 -6 16 -8 16 -23 -1z"/>
<path d="M4850 3840 c-8 -5 -11 -12 -8 -16 4 -3 14 1 23 10 18 17 9 21 -15 6z"/>
<path d="M3530 2109 c0 -11 5 -17 10 -14 6 3 10 13 10 21 0 8 -4 14 -10 14 -5
0 -10 -9 -10 -21z"/>
<path d="M5350 1902 c0 -19 -4 -21 -30 -15 -29 5 -42 -8 -21 -22 6 -3 8 -13 6
-23 -16 -67 -23 -90 -33 -109 -12 -21 -10 -22 25 -18 21 1 49 3 62 4 l24 1
-22 24 c-15 16 -19 26 -12 31 14 8 71 -3 88 -17 13 -10 33 -3 33 12 0 5 -16
16 -35 25 -52 25 -63 43 -31 51 15 3 31 15 36 25 8 14 18 17 43 14 l32 -5 -34
16 c-19 8 -56 18 -83 21 -44 5 -48 4 -48 -15z"/>
<path d="M5593 1864 c4 -4 3 -12 -2 -18 -14 -18 -23 -86 -11 -86 5 0 10 13 10
28 0 15 5 33 12 40 7 7 8 12 3 12 -6 0 -4 4 3 9 11 6 10 10 -4 15 -10 4 -15 4
-11 0z"/>
<path d="M3661 1834 c0 -11 3 -14 6 -6 3 7 2 16 -1 19 -3 4 -6 -2 -5 -13z"/>
<path d="M5455 1840 c3 -5 14 -10 23 -10 15 0 15 2 2 10 -20 13 -33 13 -25 0z"/>
<path d="M5640 1837 c22 -20 70 -38 70 -27 0 5 -16 17 -36 25 -45 18 -53 19
-34 2z"/>
<path d="M5036 1718 c0 -35 2 -68 2 -75 1 -6 27 -17 57 -24 51 -11 67 -29 26
-29 -10 0 -26 -9 -36 -20 -17 -19 -17 -20 -1 -20 9 0 15 4 12 9 -7 11 44 25
53 15 3 -4 0 -9 -6 -11 -17 -6 -17 -23 0 -23 20 0 40 39 27 55 -8 9 -3 14 20
18 41 9 50 48 21 87 -11 16 -21 33 -21 38 0 12 -33 22 -80 26 -19 2 -44 6 -55
10 -19 7 -20 3 -19 -56z"/>
<path d="M5565 1730 c-3 -5 -1 -10 4 -10 6 0 11 5 11 10 0 6 -2 10 -4 10 -3 0
-8 -4 -11 -10z"/>
<path d="M5403 1723 c-10 -3 -10 -8 1 -19 20 -19 38 -18 34 3 -3 18 -16 24
-35 16z"/>
<path d="M5257 1664 c-8 -8 1 -24 14 -24 5 0 9 7 9 15 0 15 -12 20 -23 9z"/>
<path d="M5372 1628 c-14 -14 -16 -38 -3 -38 5 0 11 7 15 15 3 8 15 15 26 15
11 0 20 5 20 10 0 14 -43 13 -58 -2z"/>
<path d="M5508 1613 c6 -2 18 -2 25 0 6 3 1 5 -13 5 -14 0 -19 -2 -12 -5z"/>
<path d="M4866 1521 c-19 -21 -20 -31 -3 -31 15 0 39 37 28 44 -5 3 -16 -3
-25 -13z"/>
<path d="M5028 1532 c-10 -2 -18 -8 -18 -13 0 -13 27 -11 35 2 9 13 4 16 -17
11z"/>
<path d="M5097 1513 c-4 -3 -7 -13 -7 -21 0 -12 3 -12 15 -2 8 7 15 16 15 21
0 11 -14 12 -23 2z"/>
<path d="M3910 1351 c0 -11 5 -23 10 -26 6 -3 10 3 10 14 0 11 -4 23 -10 26
-5 3 -10 -3 -10 -14z"/>
<path d="M4725 1360 c-3 -5 1 -10 10 -10 9 0 13 5 10 10 -3 6 -8 10 -10 10 -2
0 -7 -4 -10 -10z"/>
<path d="M5075 1350 c4 -6 11 -8 16 -5 14 9 11 15 -7 15 -8 0 -12 -5 -9 -10z"/>
<path d="M3970 1308 c0 -19 25 -41 40 -36 6 2 0 14 -14 27 -20 19 -26 21 -26
9z"/>
<path d="M5205 1280 c3 -5 8 -10 11 -10 2 0 4 5 4 10 0 6 -5 10 -11 10 -5 0
-7 -4 -4 -10z"/>
<path d="M5385 1250 c3 -5 13 -10 21 -10 8 0 12 5 9 10 -3 6 -13 10 -21 10 -8
0 -12 -4 -9 -10z"/>
<path d="M5150 1220 c0 -5 5 -10 10 -10 6 0 10 5 10 10 0 6 -4 10 -10 10 -5 0
-10 -4 -10 -10z"/>
<path d="M7590 1205 c0 -9 5 -15 11 -13 6 2 11 8 11 13 0 5 -5 11 -11 13 -6 2
-11 -4 -11 -13z"/>
<path d="M4120 1170 c0 -5 5 -10 11 -10 5 0 7 5 4 10 -3 6 -8 10 -11 10 -2 0
-4 -4 -4 -10z"/>
<path d="M4190 1070 c0 -54 19 -108 43 -125 48 -33 50 -2 6 81 -41 78 -49 85
-49 44z"/>
<path d="M4095 1030 c3 -5 8 -10 11 -10 2 0 4 5 4 10 0 6 -5 10 -11 10 -5 0
-7 -4 -4 -10z"/>
<path d="M1819 982 l-25 -17 32 -30 c18 -16 33 -38 34 -48 0 -9 4 -25 9 -35 5
-9 14 -30 20 -45 6 -15 16 -25 21 -22 6 3 10 0 10 -9 0 -8 5 -16 10 -18 6 -2
12 -13 13 -25 0 -12 9 -24 19 -26 10 -3 18 -12 18 -21 0 -9 5 -16 10 -16 6 0
10 -7 10 -16 0 -11 -6 -14 -22 -10 -13 3 -17 3 -10 0 23 -11 12 -24 -20 -24
-17 0 -40 7 -50 17 -10 9 -21 13 -26 9 -4 -4 2 -14 12 -22 18 -13 18 -15 3
-26 -14 -12 -11 -19 35 -67 44 -48 49 -56 34 -66 -9 -7 -16 -17 -16 -23 0 -6
-9 -14 -20 -17 -11 -3 -20 -15 -20 -25 0 -26 38 -97 56 -104 8 -3 14 -11 14
-18 0 -14 34 -48 49 -48 11 0 42 -35 40 -46 -6 -34 15 -48 23 -16 6 21 108 62
153 62 22 0 26 4 21 17 -70 208 -122 345 -160 417 -25 49 -46 92 -46 97 0 16
-55 124 -71 140 -10 10 -25 19 -36 21 -10 2 -29 20 -42 41 -27 40 -43 44 -82
19z m48 -24 c-3 -8 -6 -5 -6 6 -1 11 2 17 5 13 3 -3 4 -12 1 -19z"/>
<path d="M7990 655 c0 -8 -4 -15 -9 -15 -5 0 -14 -14 -20 -30 -5 -17 -17 -33
-26 -36 -8 -3 -15 -17 -15 -30 0 -13 -4 -24 -9 -24 -5 0 -14 -13 -21 -30 -7
-16 -16 -30 -20 -30 -4 0 -10 -9 -13 -20 -3 -12 -14 -20 -26 -20 -22 0 -28
-14 -11 -25 16 -10 -51 -103 -99 -135 -20 -13 -22 -20 -16 -69 4 -29 21 -85
38 -122 l32 -69 71 0 72 0 16 40 c20 50 28 51 24 3 -3 -33 0 -38 20 -41 21 -3
22 0 22 56 0 52 -3 60 -21 65 -23 6 -17 27 7 27 12 0 14 40 14 260 0 143 -2
260 -5 260 -3 0 -5 -7 -5 -15z m-70 -429 c0 -1 -9 -20 -19 -42 -12 -24 -16
-43 -10 -48 13 -14 11 -38 -3 -34 -15 5 -46 57 -47 78 -1 19 50 59 66 53 7 -3
13 -6 13 -7z"/>
<path d="M4395 590 c8 -62 33 -173 34 -150 1 25 -27 192 -34 199 -4 3 -4 -19
0 -49z"/>
<path d="M4428 363 c-2 -45 3 -127 7 -132 2 -1 9 0 15 4 8 5 8 10 0 20 -8 10
-8 19 0 34 7 14 7 27 1 39 -6 10 -8 28 -5 39 3 12 1 24 -5 27 -7 5 -12 -6 -13
-31z"/>
<path d="M1292 346 c-10 -18 -32 -64 -47 -102 -15 -38 -39 -94 -52 -124 -14
-30 -29 -70 -33 -87 l-8 -33 386 0 387 0 -52 35 c-29 19 -56 35 -61 35 -5 0
-40 20 -78 45 -38 24 -72 45 -76 45 -13 0 -211 122 -280 171 l-67 48 -19 -33z"/>
<path d="M4088 243 c7 -3 16 -2 19 1 4 3 -2 6 -13 5 -11 0 -14 -3 -6 -6z"/>
<path d="M7540 234 c0 -8 5 -12 10 -9 6 4 8 11 5 16 -9 14 -15 11 -15 -7z"/>
<path d="M4430 175 c0 -8 5 -15 10 -15 6 0 10 7 10 15 0 8 -4 15 -10 15 -5 0
-10 -7 -10 -15z"/>
<path d="M6170 111 c0 -10 -3 -39 -6 -65 -6 -38 -4 -46 10 -46 15 0 23 27 16
55 -1 6 -2 25 -2 43 1 17 -3 32 -8 32 -6 0 -10 -8 -10 -19z"/>
<path d="M6370 110 c0 -5 5 -10 10 -10 6 0 10 5 10 10 0 6 -4 10 -10 10 -5 0
-10 -4 -10 -10z"/>
<path d="M6470 101 c0 -5 5 -13 10 -16 6 -3 10 -2 10 4 0 5 -4 13 -10 16 -5 3
-10 2 -10 -4z"/>
<path d="M6313 48 c-8 -39 -7 -43 11 -46 11 -2 22 1 24 7 4 13 32 15 32 2 0
-5 70 -9 155 -10 91 -1 155 2 155 8 0 5 -8 7 -17 5 -10 -3 -43 2 -73 9 -31 9
-59 11 -64 6 -6 -5 -15 -4 -23 3 -10 8 -17 8 -25 0 -17 -17 -35 -15 -55 7 -21
22 -52 29 -71 17 -9 -5 -15 -1 -19 13 -9 33 -21 25 -30 -21z m107 -28 c0 -5
-7 -10 -15 -10 -8 0 -15 5 -15 10 0 6 7 10 15 10 8 0 15 -4 15 -10z"/>
<path d="M2302 48 c-12 -12 -226 -16 -284 -5 -35 7 -46 -9 -13 -17 14 -4 25
-11 25 -16 0 -6 60 -10 154 -10 118 0 156 3 165 14 26 31 -18 63 -47 34z"/>
<path d="M6087 44 c-14 -14 -7 -35 11 -32 9 2 17 10 17 17 0 16 -18 25 -28 15z"/>
<path d="M7687 35 c-4 -8 -2 -17 3 -20 6 -4 10 3 10 14 0 25 -6 27 -13 6z"/>
<path d="M6020 24 c0 -8 5 -12 10 -9 6 3 10 10 10 16 0 5 -4 9 -10 9 -5 0 -10
-7 -10 -16z"/>
</g>
</svg>
